<svg width="375" height="788" viewBox="0 0 375 788" fill="none" xmlns="http://www.w3.org/2000/svg">
<path d="M131.308 251.404L135.862 255.886L131.308 260.369L126.754 255.886L131.308 251.404Z" fill="#427EA6"/>
<path d="M220.975 265.691L225.529 270.174L220.975 274.656L216.421 270.174L220.975 265.691Z" fill="#427EA6"/>
<path d="M60.3618 330.725L64.9159 335.207L60.3618 339.689L55.8076 335.207L60.3618 330.725Z" fill="#427EA6"/>
<path d="M209.096 30.0957L213.65 34.5779L209.096 39.06L204.542 34.5779L209.096 30.0957Z" fill="#427EA6"/>
<path d="M290.443 315.945L294.997 320.427L290.443 324.91L285.889 320.427L290.443 315.945Z" fill="#427EA6"/>
<path d="M244.369 156.014L248.923 160.496L244.369 164.978L239.814 160.496L244.369 156.014Z" fill="#427EA6"/>
<path d="M84.1713 117.523L88.7255 122.006L84.1713 126.488L79.6172 122.006L84.1713 117.523Z" fill="#427EA6"/>
<path d="M14.0503 242.439L18.6044 246.922L14.0503 251.404L9.49609 246.922L14.0503 242.439Z" fill="#427EA6"/>
<path d="M42.2763 280.617L45.0467 283.344L42.2763 286.07L39.5059 283.344L42.2763 280.617Z" fill="#4A82A7"/>
<path d="M216.421 343.648L219.191 346.375L216.421 349.102L213.65 346.375L216.421 343.648Z" fill="#4A82A7"/>
<path d="M270.963 97.1113L273.733 99.8379L270.963 102.565L268.192 99.8379L270.963 97.1113Z" fill="#4A82A7"/>
<path d="M131.308 171.203L134.078 173.93L131.308 176.656L128.537 173.93L131.308 171.203Z" fill="#4A82A7"/>
<path d="M138.633 330.725L141.403 333.451L138.633 336.178L135.862 333.451L138.633 330.725Z" fill="#4A82A7"/>
<path d="M362.733 253.16L365.504 255.887L362.733 258.613L359.963 255.887L362.733 253.16Z" fill="#427EA6"/>
<path d="M297.767 246.922L300.538 249.648L297.767 252.375L294.997 249.648L297.767 246.922Z" fill="#4A82A7"/>
<path d="M352.309 0.384766L355.08 3.11138L352.309 5.838L349.539 3.11138L352.309 0.384766Z" fill="#4A82A7"/>
<path d="M179.306 83.8398L182.076 86.5665L179.306 89.2931L176.535 86.5665L179.306 83.8398Z" fill="#4A82A7"/>
<path d="M270.963 373.818L273.733 376.545L270.963 379.272L268.192 376.545L270.963 373.818Z" fill="#4A82A7"/>
<path d="M325.506 127.281L328.276 130.008L325.506 132.734L322.735 130.008L325.506 127.281Z" fill="#4A82A7"/>
<path d="M45.0468 36.334L47.8172 39.0606L45.0468 41.7872L42.2764 39.0606L45.0468 36.334Z" fill="#4A82A7"/>
<path d="M132.354 420.725L135.125 423.451L132.354 426.178L129.584 423.451L132.354 420.725Z" fill="#4A82A7"/>
<path d="M21.3749 389.797L24.1453 392.523L21.3749 395.25L18.6045 392.523L21.3749 389.797Z" fill="#427EA6"/>
<g clip-path="url(#clip0_593_4761)">
<path d="M579.261 827.731C577.032 825.482 571.251 823.991 568.215 822.978C521.796 807.454 473.248 800.17 424.34 804.301C401.678 806.214 378.762 810.446 356.522 815.198C326.443 821.625 296.537 829.323 266.197 834.482C259.837 835.585 253.454 836.555 247.047 837.388C240.644 838.222 234.226 838.918 227.791 839.473C221.357 840.033 214.915 840.455 208.462 840.737C202.012 841.018 195.554 841.163 189.097 841.171C164.913 841.296 140.486 840.009 116.565 836.328C88.438 831.998 60.9101 824.766 33.163 818.57C-26.1408 805.33 -83.8566 797.871 -144.205 808.874C-162.944 812.288 -188.203 818.985 -205.155 827.453L-205.151 787.317L-200.168 787.114L-200.149 767.865C-191.035 768.268 -181.922 768.566 -172.801 768.753C-172.988 761.541 -173.638 760.344 -168.901 754.895C-167.184 756.585 -165.51 758.341 -163.542 759.749C-162.299 759.781 -162.256 757.375 -161.059 756.507C-160.519 756.796 -160.057 756.996 -159.471 757.164C-158.247 756.362 -157.05 753.436 -155.994 752.13C-153.166 754.75 -153.17 756.917 -151.366 758.791C-148.992 758.635 -148.245 755.232 -146.962 753.507C-143.465 748.809 -137.364 745.625 -132.248 743.11C-132.154 738.248 -132.991 724.26 -131.536 720.556C-130.276 719.441 -128.489 719.508 -126.967 718.96C-126.803 718.902 -126.013 718.55 -125.915 718.37C-124.48 715.71 -125.989 709.577 -124.3 705.904C-122.7 702.415 -118.804 700.92 -115.425 699.7L-114.115 690.543C-113.63 693.633 -113.258 696.743 -112.843 699.841C-98.1718 705.165 -106.073 712.647 -100.503 722.845L-100.171 722.825C-100.171 722.825 -100.174 722.829 -100.174 722.833L-100.483 722.872L-100.237 722.954C-100.217 722.911 -100.194 722.872 -100.174 722.833L-100.057 722.817L-100.171 722.825C-99.7989 722.078 -99.5136 721.417 -98.7194 721.014C-97.5851 721.444 -97.2761 722.063 -96.5252 722.997C-96.5134 727.785 -96.8029 732.78 -96.2553 737.532C-95.3048 738.1 -93.0129 737.83 -91.8628 737.826L-91.7454 726.768C-86.5081 725.469 -80.0936 726.189 -74.7076 726.255C-74.4612 722.473 -75.0752 719.105 -75.8146 715.425C-75.3569 714.599 -73.5461 714.505 -72.6699 713.926C-72.0832 713.535 -71.1406 706.98 -70.9021 705.81L-69.4391 713.422C-64.3545 710.089 -60.9438 706.542 -56.9308 702.032C-48.5173 692.582 -41.8642 689.75 -29.6179 687.356C-27.7953 685.193 -27.6739 679.451 -27.2906 676.595C-26.8876 679.134 -26.5592 681.731 -25.9687 684.23C-25.8905 684.551 -25.8083 684.872 -25.7144 685.193C-25.6167 685.541 -25.4876 685.881 -25.331 686.206C-25.1941 686.503 -25.0103 686.93 -24.7952 687.16C-24.1575 687.829 -11.3557 691.553 -8.1524 693.599C-0.666061 698.378 3.22169 706.51 10.6612 711.11C11.0132 709.507 11.2558 707.688 12.0144 706.229C12.8279 707.117 13.043 709.154 13.3129 710.336C15.0456 712.159 18.2216 713.919 19.4303 716.055C18.8435 716.403 18.2491 716.696 17.627 716.982C16.97 718.28 17.2633 719.395 17.3493 720.831L25.739 720.862L25.7625 661.368C24.9097 660.762 24.0532 660.151 23.2437 659.483C19.9113 656.729 19.7627 653.686 19.4066 649.653L25.9307 649.681L25.9737 629.626C24.6595 627.968 23.666 626.184 22.6412 624.346L27.7963 624.185C27.6439 613.151 27.0923 601.542 28.0779 590.554C28.5786 584.992 29.6815 579.426 30.5343 573.903C32.1965 563.479 33.7103 553.035 35.0752 542.568C36.2683 545.372 41.576 588.047 41.7715 593.175C42.1352 602.758 41.216 612.482 41.7753 622.034C41.9983 625.86 43.817 622.875 45.6709 624.534C45.7608 626.743 44.7517 627.698 43.3515 629.235L43.3789 649.79L48.7217 649.767C48.7451 650.924 48.7881 652.11 48.6942 653.264C48.3931 656.882 46.0423 658.986 43.4647 661.204C43.7424 681.105 43.633 701.027 43.6602 720.933L48.3343 720.972C48.346 722.517 47.9237 724.922 48.749 726.237C49.8598 727.054 51.6511 726.796 52.9811 726.769L52.9966 703.71C54.5652 703.702 56.6576 703.937 58.054 703.186C58.4453 702.106 57.6277 701.833 57.3304 700.784C58.8989 699.881 72.9797 700.053 75.4791 700.596C75.2523 701.347 74.8924 701.993 74.5169 702.677L74.775 703.217C76.6447 703.871 79.2691 703.511 81.2561 703.479L81.3539 686.245C81.041 685.952 80.7358 685.674 80.3917 685.416L80.0788 685.181L80.0396 684.164C80.8181 683.343 81.7607 683.601 82.8402 683.273C83.7398 680.742 83.1609 676.584 83.118 673.877C82.2301 673.142 81.2719 672.227 80.6773 671.225C79.8833 669.888 79.5977 667.725 80.0124 666.246C81.0059 665.573 81.8077 666.137 82.8677 665.605C83.5797 660.547 83.3956 653.338 82.633 648.347C82.1089 647.843 81.4519 647.311 81.2798 646.571C81.1508 646.016 81.2447 646.067 81.5145 645.621L83.7792 645.476C85.1951 643.7 84.3033 630.6 84.4128 627.487C84.6358 621.013 85.9109 614.501 86.8965 608.109C87.6904 602.934 88.2616 597.572 89.4662 592.479C90.5378 597.521 90.9993 602.841 91.7075 607.953C92.5132 613.738 93.6319 619.68 93.8625 625.516C94.1168 631.829 93.4244 638.31 93.972 644.588C94.1245 646.317 96.2326 645.081 97.3045 645.981C97.0543 647.217 96.5457 647.557 95.6854 648.437C94.8914 652.794 95.2511 658.376 95.4193 662.859C95.5405 665.988 96.7921 665.08 98.5172 666.684C98.6814 669.903 97.1795 670.592 95.8068 673.111C94.4612 675.583 95.0754 683.852 95.8773 686.468L96.3428 686.656C98.0443 684.681 97.5749 682.209 97.4379 679.807L101.932 678.732C102.038 678.012 102.104 677.284 102.237 676.565C103.211 671.206 107.889 666.88 112.669 664.744C114.667 663.852 117.159 663.16 118.903 661.869C121.078 660.261 121.031 654.116 121.372 651.464C123.026 669.215 126.699 659.514 136.645 671.71L136.516 661.141L131.072 657.778C134.662 656.855 138.14 655.626 141.636 654.406C142.368 650.42 143.404 646.626 145.243 642.996C152.154 629.357 166.579 621.127 180.589 616.503C181.176 610.886 185.025 611.591 186.136 608.094C186.566 606.748 185.784 605.598 185.279 604.378C185.537 603.873 185.772 603.353 186.034 602.848C187.9 599.246 187.712 589.26 188.138 584.543C188.897 590.128 189.394 595.628 189.39 601.268C192.288 605.102 189.488 604.714 189.777 607.566C189.946 609.213 191.494 610.296 192.652 611.27C194.553 612.874 194.917 614.149 195.124 616.555C202.219 618.835 208.912 621.811 214.99 626.173C225.179 633.484 231.159 642.789 233.217 655.153C236.447 656.244 240.116 657.473 242.929 659.424C242.119 660.433 239.764 661.493 238.599 662.374C238.243 662.644 237.66 663.023 237.476 663.461C236.839 664.994 237.03 669.946 236.737 672.039C238.567 670.197 239.846 668.378 242.06 666.884C244.458 665.26 251.698 663.051 252.82 660.817C253.857 658.767 252.73 655.936 253.872 653.804C254.557 655.564 253.978 657.887 254.643 659.8C255.816 663.195 261.441 664.075 264.386 665.574C268.786 667.811 271.947 672.266 273.421 676.905C273.601 677.472 273.746 677.492 274.188 677.864L274.963 677.457C275.96 675.208 273.472 671.417 273.159 668.934C273.057 668.12 272.925 667.842 273.425 667.189C274.176 667.162 274.712 667.126 275.393 666.802C276.007 663.7 276.276 653.405 275.221 650.413C275.08 649.181 273.875 648.152 273.414 646.92C273.938 645.965 275.416 646.661 276.398 645.914C277.29 639.288 276.472 632.181 276.766 625.473C277.067 618.675 278.557 611.685 279.64 604.977C280.192 601.585 282.046 594.611 280.505 591.517C283.317 595.843 285.46 619.774 285.719 626.048C285.989 632.647 285.597 639.265 286.016 645.86C287.029 646.658 288.21 646.059 289.38 646.65C289.266 648.148 287.272 649.689 286.227 650.682C287.475 652.939 286.74 663.301 286.833 666.575C287.686 667.514 288.582 666.763 289.607 667.557C289.634 667.999 289.657 668.441 289.634 668.887C289.505 671.104 288.335 672.665 286.767 674.113C287.279 677.484 285.824 684.275 287.85 686.821C288.152 686.899 288.55 687.103 288.844 686.97C290.381 686.262 291.23 682.726 291.68 681.235C292.274 682.17 292.92 683.156 293.162 684.247C293.921 687.685 294.856 700.852 293.225 703.488C295.431 703.539 297.844 703.758 300.027 703.398C301.133 703.214 301.892 702.956 302.561 702.033C302.381 701.36 302.221 700.871 302.428 700.179C304.11 699.287 316.548 699.925 319.224 699.941C319.916 700.688 319.646 702.471 319.654 703.523C320.459 704.548 321.429 703.969 322.587 704.458C322.384 708.757 323.182 724.587 321.688 727.141L331.087 727.149C331.532 726.375 331.74 725.741 331.771 724.837C332.135 714.136 331.36 703.418 331.325 692.72V672.513C331.333 668.926 331.744 664.878 331.016 661.393C330.124 660.552 328.36 660.559 327.339 659.562C324.953 657.239 326.033 653.769 324.218 651.34C326.596 651.477 328.951 651.528 331.333 651.512C331.36 651.449 331.392 651.387 331.427 651.324C332.78 648.829 332.252 632.791 331.888 629.216C331.829 629.04 331.877 629.138 331.673 628.947C330.711 628.035 329.276 626.819 329.021 625.485C329.932 624.863 331.63 625.137 332.756 625.148C333.797 622.254 333.437 618.01 333.507 614.9C333.656 608.157 333.011 601.19 333.418 594.506C333.695 589.972 334.509 585.376 335.088 580.862C336.116 572.562 337.235 564.27 338.451 555.993C339.03 552.16 340.943 545.765 339.386 542.24C339.812 542.866 340.325 543.55 340.603 544.255C342.12 548.119 342.492 556.4 343.028 560.73C344.373 571.631 346.051 582.697 346.802 593.661C347.045 597.185 347.013 623.537 346.478 624.945C348.363 624.898 350.252 624.894 352.145 624.933C351.265 626.959 350.115 627.984 348.234 629.087C350.471 633.476 347.201 647.632 349.509 650.737C350.643 652.263 352.779 650.694 354.355 650.913L354.801 651.594C354.953 652.811 354.84 654.082 354.398 655.232C353.318 658.048 350.491 659.773 347.862 660.907C348.953 664.107 348.414 669.368 348.468 672.837L349 711.6C349.079 716.083 348.488 722.76 349.563 726.996L350.506 727.415C351.805 726.715 351.527 725.514 352.419 724.845C353.569 723.98 359.674 725.267 362.35 723.761C364.313 721.743 363.249 714.471 363.284 711.557C363.867 710.537 365.099 710.893 366.03 710.126C366.007 710.055 365.987 709.989 365.964 709.919C365.635 708.859 365.53 707.806 366.085 706.805C366.394 706.25 366.445 706.304 367.055 706.14L367.88 706.801C368.585 707.932 368.362 709.129 368.26 710.392C369.453 710.991 371.729 710.599 373.083 710.533C374.819 709.262 376.22 705.561 377.464 703.664C383.487 694.492 394.032 691.061 403.857 687.944C404.073 687.799 404.248 687.674 404.425 687.486C406.552 685.264 406.748 680.872 406.654 677.981C408.289 679.976 407.483 683.868 408.575 686.254C409.732 688.793 417.176 689.102 419.91 690.111C427.689 692.986 434.953 698.333 439.11 705.616C440.483 708.014 441.387 710.763 442.541 713.283C443.12 713.439 443.421 713.607 444.007 713.416C445.013 713.095 445.619 712.25 446.041 711.319C446.679 709.931 447.324 706.946 446.8 705.503C448.025 707.134 447.813 708.655 448.267 710.545C448.873 713.095 451.099 713.38 453.011 714.624C453.062 714.659 453.113 714.691 453.168 714.726C454.036 717.35 454.009 723.179 453.023 725.76C456.121 725.819 460.987 724.829 463.803 725.882C464.828 726.265 465.45 726.949 465.825 727.966C466.631 730.122 466.408 735.656 465.466 737.741C467.14 737.71 469.537 738.203 471.004 737.401C471.352 736.302 471.047 735.973 470.621 734.945C470.781 734.714 470.93 734.467 471.032 734.201C471.72 732.371 472.193 720.57 471.567 718.907L476.648 718.954C478.24 715.653 477.239 710.396 478.224 706.707C479.331 702.561 482.132 700.781 485.605 698.743C486.849 697.5 487.084 694.233 487.424 692.516L487.839 692.364C488.038 694.108 488.077 696.479 488.949 698.012C490.69 701.067 495.145 701.208 497.727 708.041C498.908 711.174 499.643 716.424 498.188 719.604L503.512 719.693C503.871 720.229 504.125 720.746 504.294 721.372C504.994 723.996 505.295 738.66 504.13 740.718C510.501 742.11 517.44 744.293 523.186 747.368C524.934 746.112 526.843 745.091 528.716 744.031L528.747 744.113C529.017 742.955 529.236 741.946 529.913 740.941L530.296 741.199C530.469 742.306 530.668 743.335 530.461 744.454C532.205 745.064 534.043 745.78 535.487 746.969C536.484 747.794 537.384 749.018 537.521 750.325C537.927 751.909 537.626 753.321 537.693 754.913C537.732 755.961 537.935 756.317 538.674 756.97C539.167 757.037 539.637 757.06 540.122 756.908C542.061 756.301 542.82 754.408 543.661 752.738L543.99 752.93C544.252 753.962 544.456 754.745 544.217 755.816C548.034 757.166 547.901 758.723 550.67 760.291C551.433 760.721 552.337 760.737 553.107 761.089C554.015 761.5 554.152 761.973 554.527 762.826C554.398 764.562 554.242 766.331 553.487 767.926C560.073 767.923 566.758 767.676 573.333 767.324C573.423 767.59 573.497 767.782 573.556 768.052C574.111 770.653 574.248 784.938 573.11 786.768C575.207 786.8 577.225 786.921 579.306 787.148C579.36 787.261 579.419 787.374 579.466 787.492C579.891 788.467 580.141 825.47 579.261 827.731Z" fill="#1E5174"/>
</g>
<defs>
<clipPath id="clip0_593_4761">
<rect width="786" height="301" fill="white" transform="translate(-205.5 541)"/>
</clipPath>
</defs>
</svg>
