<svg width="25" height="24" viewBox="0 0 25 24" fill="none" xmlns="http://www.w3.org/2000/svg">
<g clip-path="url(#clip0_622_3726)">
<path d="M9.58914 11.6949V5.44177C9.58914 4.8386 9.10015 4.34961 8.49698 4.34961C7.89381 4.34961 7.40482 4.8386 7.40482 5.44177" stroke="#17689C" stroke-miterlimit="10" stroke-linecap="round" stroke-linejoin="round"/>
<path d="M7.40482 11.6952V4.34998C7.40482 3.7468 6.91583 3.25781 6.31265 3.25781C5.70948 3.25781 5.22049 3.7468 5.22049 4.34998V11.6952" stroke="#17689C" stroke-miterlimit="10" stroke-linecap="round" stroke-linejoin="round"/>
<path d="M1.98627 18.6141C1.2751 17.692 0.851776 16.5366 0.851776 15.2821V9.74837C0.851776 9.14519 1.34077 8.65625 1.94394 8.65625C2.54711 8.65625 3.0361 9.14524 3.0361 9.74841" stroke="#17689C" stroke-miterlimit="10" stroke-linecap="round" stroke-linejoin="round"/>
<path d="M2.98059 19.6079C3.90265 20.3191 5.05809 20.7424 6.31258 20.7424C9.3285 20.7424 11.7734 18.2975 11.7734 15.2816V8.71912C11.7734 8.11594 11.2844 7.62695 10.6812 7.62695C10.0781 7.62695 9.58907 8.11594 9.58907 8.71912" stroke="#17689C" stroke-miterlimit="10" stroke-linecap="round" stroke-linejoin="round"/>
<path d="M7.4048 18.0161C7.4048 16.6909 6.60649 15.4962 5.38219 14.989L3.71038 14.2966C3.30225 14.1275 3.03619 13.7293 3.03619 13.2875V5.44177C3.03619 4.8386 3.52518 4.34961 4.12836 4.34961C4.73153 4.34961 5.22052 4.8386 5.22052 5.44177" stroke="#17689C" stroke-miterlimit="10" stroke-linecap="round" stroke-linejoin="round"/>
<path d="M15.4109 11.6949V5.44177C15.4109 4.8386 15.8999 4.34961 16.5031 4.34961C17.1062 4.34961 17.5952 4.8386 17.5952 5.44177" stroke="#17689C" stroke-miterlimit="10" stroke-linecap="round" stroke-linejoin="round"/>
<path d="M17.5952 11.6952V4.34998C17.5952 3.7468 18.0842 3.25781 18.6874 3.25781C19.2906 3.25781 19.7795 3.7468 19.7795 4.34998V11.6952" stroke="#17689C" stroke-miterlimit="10" stroke-linecap="round" stroke-linejoin="round"/>
<path d="M23.0137 18.6141C23.7249 17.692 24.1482 16.5366 24.1482 15.2821V9.74837C24.1482 9.14519 23.6592 8.65625 23.056 8.65625C22.4529 8.65625 21.9639 9.14524 21.9639 9.74841" stroke="#17689C" stroke-miterlimit="10" stroke-linecap="round" stroke-linejoin="round"/>
<path d="M22.0194 19.6079C21.0973 20.3191 19.9419 20.7424 18.6874 20.7424C15.6715 20.7424 13.2266 18.2975 13.2266 15.2816V8.71912C13.2266 8.11594 13.7156 7.62695 14.3187 7.62695C14.9219 7.62695 15.4109 8.11594 15.4109 8.71912" stroke="#17689C" stroke-miterlimit="10" stroke-linecap="round" stroke-linejoin="round"/>
<path d="M17.5952 18.0161C17.5952 16.6909 18.3935 15.4962 19.6178 14.989L21.2896 14.2966C21.6978 14.1275 21.9638 13.7293 21.9638 13.2875V5.44177C21.9638 4.8386 21.4748 4.34961 20.8717 4.34961C20.2685 4.34961 19.7795 4.8386 19.7795 5.44177" stroke="#17689C" stroke-miterlimit="10" stroke-linecap="round" stroke-linejoin="round"/>
</g>
<defs>
<clipPath id="clip0_622_3726">
<rect width="24" height="24" fill="white" transform="translate(0.5)"/>
</clipPath>
</defs>
</svg>
