<?xml version="1.0" encoding="UTF-8"?>
<svg id="a" data-name="Layer 1" xmlns="http://www.w3.org/2000/svg" width="16" height="16" viewBox="0 0 16 16">
  <path d="M3.88,3.21c.91,.68,1.82,1.36,2.73,2.04,.42,.32,.85,.63,1.27,.96,.1,.08,.17,.07,.27,0,1.27-.96,2.54-1.91,3.81-2.86,.05-.03,.1-.06,.14-.09,0,1.49,0,2.97,0,4.46,0,.06,0,.12,0,.17,0,0,0,.02,0,.02-1.3,.97-2.6,1.94-3.9,2.92-.15,.12-.24,.11-.4,0-1.27-.96-2.55-1.92-3.83-2.88-.02-.02-.05-.03-.07-.05-.01-.02-.02-.03-.03-.05,.03-.09,.04-.18,.04-.27,0-1.3,0-2.6,0-3.9,0-.16,0-.31-.03-.47Z" style="fill: #e63b36;"/>
  <path d="M12.1,7.89s0-.01,0-.02c.07-.05,.13-.09,.2-.14,1.17-.88,2.35-1.76,3.52-2.63,0,.06,0,.13,0,.19,0,2.48,0,4.97,0,7.45,0,.77-.46,1.23-1.23,1.23-.77,0-1.54,0-2.31,0h-.2V7.89Z" style="fill: #50af50;"/>
  <path d="M3.88,7.85s.02,.03,.03,.05c0,1.94,0,3.88,0,5.82,0,.05,0,.09,0,.14,0,.07-.02,.11-.1,.11-.9-.01-1.81,.05-2.71-.03-.53-.05-.93-.53-.93-1.06,0-2.58,0-5.16,0-7.75,0-.01,0-.02,0-.03,.24,.18,.48,.35,.71,.53,1,.74,1.99,1.49,2.99,2.23Z" style="fill: #3f83c5;"/>
  <path d="M15.84,5.1c-1.17,.88-2.35,1.76-3.52,2.63-.07,.05-.13,.09-.2,.14,0-.06,0-.12,0-.17,0-1.49,0-2.97,0-4.46,.43-.34,.85-.69,1.31-.98,1.03-.65,2.4,.1,2.42,1.31,.01,.51,0,1.01,0,1.52Z" style="fill: #f9bf2d;"/>
  <path d="M3.88,7.85c-1-.74-1.99-1.49-2.99-2.23-.24-.18-.48-.35-.71-.53,0-.59-.06-1.18,.03-1.76,.18-1.12,1.49-1.68,2.43-1.05,.43,.29,.83,.62,1.24,.93,.04,.15,.03,.31,.03,.47,0,1.3,0,2.6,0,3.9,0,.09,0,.19-.04,.27Z" style="fill: #c7292a;"/>
</svg>